<svg width="104" height="24" viewBox="0 0 104 24" fill="none" xmlns="http://www.w3.org/2000/svg">
<path d="M0.992 19V2.2H4.88V19H0.992ZM16.551 5.896C17.575 5.896 18.487 6.104 19.287 6.52C20.103 6.92 20.743 7.544 21.207 8.392C21.671 9.224 21.903 10.296 21.903 11.608V19H18.159V12.184C18.159 11.144 17.927 10.376 17.463 9.88C17.015 9.384 16.375 9.136 15.543 9.136C14.951 9.136 14.415 9.264 13.935 9.52C13.471 9.76 13.103 10.136 12.831 10.648C12.575 11.16 12.447 11.816 12.447 12.616V19H8.703V6.088H12.279V9.664L11.607 8.584C12.071 7.72 12.735 7.056 13.599 6.592C14.463 6.128 15.447 5.896 16.551 5.896ZM31.0345 19.192C29.8185 19.192 28.7225 18.92 27.7465 18.376C26.7705 17.816 25.9945 17.04 25.4185 16.048C24.8585 15.056 24.5785 13.888 24.5785 12.544C24.5785 11.184 24.8585 10.008 25.4185 9.016C25.9945 8.024 26.7705 7.256 27.7465 6.712C28.7225 6.168 29.8185 5.896 31.0345 5.896C32.1225 5.896 33.0745 6.136 33.8905 6.616C34.7065 7.096 35.3385 7.824 35.7865 8.8C36.2345 9.776 36.4585 11.024 36.4585 12.544C36.4585 14.048 36.2425 15.296 35.8105 16.288C35.3785 17.264 34.7545 17.992 33.9385 18.472C33.1385 18.952 32.1705 19.192 31.0345 19.192ZM31.6825 16.12C32.2905 16.12 32.8425 15.976 33.3385 15.688C33.8345 15.4 34.2265 14.992 34.5145 14.464C34.8185 13.92 34.9705 13.28 34.9705 12.544C34.9705 11.792 34.8185 11.152 34.5145 10.624C34.2265 10.096 33.8345 9.688 33.3385 9.4C32.8425 9.112 32.2905 8.968 31.6825 8.968C31.0585 8.968 30.4985 9.112 30.0025 9.4C29.5065 9.688 29.1065 10.096 28.8025 10.624C28.5145 11.152 28.3705 11.792 28.3705 12.544C28.3705 13.28 28.5145 13.92 28.8025 14.464C29.1065 14.992 29.5065 15.4 30.0025 15.688C30.4985 15.976 31.0585 16.12 31.6825 16.12ZM35.0665 19V16.36L35.1385 12.52L34.8985 8.704V1.192H38.6425V19H35.0665ZM42.2077 19V6.088H45.9517V19H42.2077ZM44.0797 4.288C43.3917 4.288 42.8317 4.088 42.3997 3.688C41.9677 3.288 41.7517 2.792 41.7517 2.2C41.7517 1.608 41.9677 1.112 42.3997 0.711999C42.8317 0.311999 43.3917 0.111999 44.0797 0.111999C44.7677 0.111999 45.3277 0.303999 45.7597 0.688C46.1917 1.056 46.4077 1.536 46.4077 2.128C46.4077 2.752 46.1917 3.272 45.7597 3.688C45.3437 4.088 44.7837 4.288 44.0797 4.288ZM55.7664 19.192C54.3744 19.192 53.1344 18.912 52.0464 18.352C50.9584 17.776 50.1024 16.984 49.4784 15.976C48.8704 14.968 48.5664 13.824 48.5664 12.544C48.5664 11.248 48.8704 10.104 49.4784 9.112C50.1024 8.104 50.9584 7.32 52.0464 6.76C53.1344 6.184 54.3744 5.896 55.7664 5.896C57.1264 5.896 58.3104 6.184 59.3184 6.76C60.3264 7.32 61.0704 8.128 61.5504 9.184L58.6464 10.744C58.3104 10.136 57.8864 9.688 57.3744 9.4C56.8784 9.112 56.3344 8.968 55.7424 8.968C55.1024 8.968 54.5264 9.112 54.0144 9.4C53.5024 9.688 53.0944 10.096 52.7904 10.624C52.5024 11.152 52.3584 11.792 52.3584 12.544C52.3584 13.296 52.5024 13.936 52.7904 14.464C53.0944 14.992 53.5024 15.4 54.0144 15.688C54.5264 15.976 55.1024 16.12 55.7424 16.12C56.3344 16.12 56.8784 15.984 57.3744 15.712C57.8864 15.424 58.3104 14.968 58.6464 14.344L61.5504 15.928C61.0704 16.968 60.3264 17.776 59.3184 18.352C58.3104 18.912 57.1264 19.192 55.7664 19.192ZM69.7861 19.192C68.4101 19.192 67.1861 18.904 66.1141 18.328C65.0581 17.752 64.2181 16.968 63.5941 15.976C62.9861 14.968 62.6821 13.824 62.6821 12.544C62.6821 11.248 62.9861 10.104 63.5941 9.112C64.2181 8.104 65.0581 7.32 66.1141 6.76C67.1861 6.184 68.4101 5.896 69.7861 5.896C71.1461 5.896 72.3621 6.184 73.4341 6.76C74.5061 7.32 75.3461 8.096 75.9541 9.088C76.5621 10.08 76.8661 11.232 76.8661 12.544C76.8661 13.824 76.5621 14.968 75.9541 15.976C75.3461 16.968 74.5061 17.752 73.4341 18.328C72.3621 18.904 71.1461 19.192 69.7861 19.192ZM69.7861 16.12C70.4101 16.12 70.9701 15.976 71.4661 15.688C71.9621 15.4 72.3541 14.992 72.6421 14.464C72.9301 13.92 73.0741 13.28 73.0741 12.544C73.0741 11.792 72.9301 11.152 72.6421 10.624C72.3541 10.096 71.9621 9.688 71.4661 9.4C70.9701 9.112 70.4101 8.968 69.7861 8.968C69.1621 8.968 68.6021 9.112 68.1061 9.4C67.6101 9.688 67.2101 10.096 66.9061 10.624C66.6181 11.152 66.4741 11.792 66.4741 12.544C66.4741 13.28 66.6181 13.92 66.9061 14.464C67.2101 14.992 67.6101 15.4 68.1061 15.688C68.6021 15.976 69.1621 16.12 69.7861 16.12ZM79.4686 19V6.088H83.0446V9.736L82.5406 8.68C82.9246 7.768 83.5406 7.08 84.3886 6.616C85.2366 6.136 86.2686 5.896 87.4846 5.896V9.352C87.3246 9.336 87.1806 9.328 87.0526 9.328C86.9246 9.312 86.7886 9.304 86.6446 9.304C85.6206 9.304 84.7886 9.6 84.1486 10.192C83.5246 10.768 83.2126 11.672 83.2126 12.904V19H79.4686ZM97.4662 19.192C96.3782 19.192 95.4262 18.952 94.6102 18.472C93.7942 17.992 93.1542 17.264 92.6902 16.288C92.2422 15.296 92.0182 14.048 92.0182 12.544C92.0182 11.024 92.2342 9.776 92.6662 8.8C93.0982 7.824 93.7222 7.096 94.5382 6.616C95.3542 6.136 96.3302 5.896 97.4662 5.896C98.6822 5.896 99.7702 6.176 100.73 6.736C101.706 7.28 102.474 8.048 103.034 9.04C103.61 10.032 103.898 11.2 103.898 12.544C103.898 13.904 103.61 15.08 103.034 16.072C102.474 17.064 101.706 17.832 100.73 18.376C99.7702 18.92 98.6822 19.192 97.4662 19.192ZM89.8342 23.656V6.088H93.4102V8.728L93.3382 12.568L93.5782 16.384V23.656H89.8342ZM96.8182 16.12C97.4422 16.12 97.9942 15.976 98.4742 15.688C98.9702 15.4 99.3622 14.992 99.6502 14.464C99.9542 13.92 100.106 13.28 100.106 12.544C100.106 11.792 99.9542 11.152 99.6502 10.624C99.3622 10.096 98.9702 9.688 98.4742 9.4C97.9942 9.112 97.4422 8.968 96.8182 8.968C96.1942 8.968 95.6342 9.112 95.1382 9.4C94.6422 9.688 94.2502 10.096 93.9622 10.624C93.6742 11.152 93.5302 11.792 93.5302 12.544C93.5302 13.28 93.6742 13.92 93.9622 14.464C94.2502 14.992 94.6422 15.4 95.1382 15.688C95.6342 15.976 96.1942 16.12 96.8182 16.12Z" fill="#252B42"/>
</svg>
